<svg id="" xmlns="http://www.w3.org/2000/svg" xmlns:xlink="http://www.w3.org/1999/xlink" xmlns:jfreesvg="http://www.jfree.org/jfreesvg/svg" width="2100" height="2970" viewBox="-119 0 2534 2970" preserveAspectRatio="xMidYMin meet" text-rendering="auto" shape-rendering="auto">
<defs><linearGradient id="_1211865503872681lgp2" x1="400" y1="401" x2="400" y2="398" gradientUnits="userSpaceOnUse"><stop offset="0%" stop-color="rgb(111,181,223)"/><stop offset="100%" stop-color="rgb(111,181,223)"/></linearGradient>
<linearGradient id="_1211865503872681lgp10" x1="400" y1="2152" x2="400" y2="2071" gradientUnits="userSpaceOnUse"><stop offset="0%" stop-color="rgb(200,255,100)"/><stop offset="100%" stop-color="rgb(200,255,100)"/></linearGradient>
<linearGradient id="_1211865503872681lgp4" x1="400" y1="602" x2="400" y2="401" gradientUnits="userSpaceOnUse"><stop offset="0%" stop-color="rgb(50,150,255)"/><stop offset="100%" stop-color="rgb(50,150,255)"/></linearGradient>
<linearGradient id="_1211865503872681lgp6" x1="400" y1="1092" x2="400" y2="1021" gradientUnits="userSpaceOnUse"><stop offset="0%" stop-color="rgb(111,181,223)"/><stop offset="100%" stop-color="rgb(70,160,244)"/></linearGradient>
<linearGradient id="_1211865503872681lgp7" x1="400" y1="1372" x2="400" y2="1091" gradientUnits="userSpaceOnUse"><stop offset="0%" stop-color="rgb(111,181,223)"/><stop offset="100%" stop-color="rgb(111,181,223)"/></linearGradient>
<linearGradient id="_1211865503872681lgp0" x1="400" y1="389" x2="400" y2="376" gradientUnits="userSpaceOnUse"><stop offset="0%" stop-color="rgb(111,181,223)"/><stop offset="100%" stop-color="rgb(111,181,223)"/></linearGradient>
<linearGradient id="_1211865503872681lgp1" x1="400" y1="399" x2="400" y2="388" gradientUnits="userSpaceOnUse"><stop offset="0%" stop-color="rgb(111,181,223)"/><stop offset="100%" stop-color="rgb(111,181,223)"/></linearGradient>
<linearGradient id="_1211865503872681lgp9" x1="400" y1="2072" x2="400" y2="1511" gradientUnits="userSpaceOnUse"><stop offset="0%" stop-color="rgb(255,255,150)"/><stop offset="100%" stop-color="rgb(255,255,150)"/></linearGradient>
<linearGradient id="_1211865503872681lgp3" x1="400" y1="402" x2="400" y2="400" gradientUnits="userSpaceOnUse"><stop offset="0%" stop-color="rgb(255,255,150)"/><stop offset="100%" stop-color="rgb(255,255,150)"/></linearGradient>
<linearGradient id="_1211865503872681lgp5" x1="400" y1="1022" x2="400" y2="601" gradientUnits="userSpaceOnUse"><stop offset="0%" stop-color="rgb(70,160,244)"/><stop offset="100%" stop-color="rgb(70,160,244)"/></linearGradient>
<linearGradient id="_1211865503872681lgp8" x1="400" y1="1512" x2="400" y2="1371" gradientUnits="userSpaceOnUse"><stop offset="0%" stop-color="rgb(255,255,150)"/><stop offset="100%" stop-color="rgb(111,181,223)"/></linearGradient>
</defs>
<rect x="400" y="377" width="700" height="12" style="fill: url(#_1211865503872681lgp0); fill-opacity: 1.0" transform="matrix(1,0,0,1,0,0)" /><rect x="400" y="377" width="700" height="12" style="stroke-width: 1.0;stroke: rgb(0,0,0);stroke-opacity: 1.0;stroke-linecap: square;; fill: none" transform="matrix(1,0,0,1,0,0)" /><g transform="matrix(1,0,0,1,0,0)"><text x="-50" y="359" style="fill: rgb(0,0,0); fill-opacity: 1.0; font-family: Arial; font-size: 40px;" >Al<tspan baseline-shift ="sub">0.3</tspan>Ga<tspan baseline-shift ="sub">0.7</tspan>N, 12 nm</text></g><line x1="-68" y1="383" x2="330" y2="383" style="stroke-width: 1.0;stroke: rgb(0,0,0);stroke-opacity: 1.0;stroke-linecap: square;" transform="matrix(1,0,0,1,0,0)" /><line x1="330" y1="383" x2="400" y2="383" style="stroke-width: 1.0;stroke: rgb(0,0,0);stroke-opacity: 1.0;stroke-linecap: square;" transform="matrix(1,0,0,1,0,0)" /><rect x="1100" y="377" width="600" height="12" style="stroke-width: 1.0;stroke: rgb(0,0,0);stroke-opacity: 1.0;stroke-linecap: square;; fill: none" transform="matrix(1,0,0,1,0,0)" /><g transform="matrix(1,0,0,1,0,0)"><text x="1799" y="359" style="fill: rgb(0,0,0); fill-opacity: 1.0; font-family: Arial; font-size: 40px;" >T = 945<tspan baseline-shift ="super">o</tspan>C, 35%, NH3=100 sccm</text></g><line x1="1770" y1="383" x2="2415" y2="383" style="stroke-width: 1.0;stroke: rgb(0,0,0);stroke-opacity: 1.0;stroke-linecap: square;" transform="matrix(1,0,0,1,0,0)" /><line x1="1770" y1="383" x2="1700" y2="383" style="stroke-width: 1.0;stroke: rgb(0,0,0);stroke-opacity: 1.0;stroke-linecap: square;" transform="matrix(1,0,0,1,0,0)" /><rect x="400" y="389" width="700" height="10" style="fill: url(#_1211865503872681lgp1); fill-opacity: 1.0" transform="matrix(1,0,0,1,0,0)" /><rect x="400" y="389" width="700" height="10" style="stroke-width: 1.0;stroke: rgb(0,0,0);stroke-opacity: 1.0;stroke-linecap: square;; fill: none" transform="matrix(1,0,0,1,0,0)" /><g transform="matrix(1,0,0,1,0,0)"><text x="-99" y="432" style="fill: rgb(0,0,0); fill-opacity: 1.0; font-family: Arial; font-size: 40px;" >Al<tspan baseline-shift ="sub">0.3</tspan>Ga<tspan baseline-shift ="sub">0.7</tspan>N:Si, 10 nm</text></g><line x1="-119" y1="456" x2="330" y2="456" style="stroke-width: 1.0;stroke: rgb(0,0,0);stroke-opacity: 1.0;stroke-linecap: square;" transform="matrix(1,0,0,1,0,0)" /><line x1="330" y1="456" x2="400" y2="394" style="stroke-width: 1.0;stroke: rgb(0,0,0);stroke-opacity: 1.0;stroke-linecap: square;" transform="matrix(1,0,0,1,0,0)" /><rect x="1100" y="389" width="600" height="10" style="stroke-width: 1.0;stroke: rgb(0,0,0);stroke-opacity: 1.0;stroke-linecap: square;; fill: none" transform="matrix(1,0,0,1,0,0)" /><g transform="matrix(1,0,0,1,0,0)"><text x="1799" y="432" style="fill: rgb(0,0,0); fill-opacity: 1.0; font-family: Arial; font-size: 40px;" >T = 945<tspan baseline-shift ="super">o</tspan>C, 35%, NH3=150 sccm</text></g><line x1="1770" y1="456" x2="2415" y2="456" style="stroke-width: 1.0;stroke: rgb(0,0,0);stroke-opacity: 1.0;stroke-linecap: square;" transform="matrix(1,0,0,1,0,0)" /><line x1="1770" y1="456" x2="1700" y2="394" style="stroke-width: 1.0;stroke: rgb(0,0,0);stroke-opacity: 1.0;stroke-linecap: square;" transform="matrix(1,0,0,1,0,0)" /><rect x="400" y="399" width="700" height="2" style="fill: url(#_1211865503872681lgp2); fill-opacity: 1.0" transform="matrix(1,0,0,1,0,0)" /><rect x="400" y="399" width="700" height="2" style="stroke-width: 1.0;stroke: rgb(0,0,0);stroke-opacity: 1.0;stroke-linecap: square;; fill: none" transform="matrix(1,0,0,1,0,0)" /><g transform="matrix(1,0,0,1,0,0)"><text x="-27" y="505" style="fill: rgb(0,0,0); fill-opacity: 1.0; font-family: Arial; font-size: 40px;" >Al<tspan baseline-shift ="sub">0.3</tspan>Ga<tspan baseline-shift ="sub">0.7</tspan>N, 2 nm</text></g><line x1="-44" y1="529" x2="330" y2="529" style="stroke-width: 1.0;stroke: rgb(0,0,0);stroke-opacity: 1.0;stroke-linecap: square;" transform="matrix(1,0,0,1,0,0)" /><line x1="330" y1="529" x2="400" y2="400" style="stroke-width: 1.0;stroke: rgb(0,0,0);stroke-opacity: 1.0;stroke-linecap: square;" transform="matrix(1,0,0,1,0,0)" /><rect x="400" y="401" width="700" height="1" style="fill: url(#_1211865503872681lgp3); fill-opacity: 1.0" transform="matrix(1,0,0,1,0,0)" /><rect x="400" y="401" width="700" height="1" style="stroke-width: 1.0;stroke: rgb(0,0,0);stroke-opacity: 1.0;stroke-linecap: square;; fill: none" transform="matrix(1,0,0,1,0,0)" /><g transform="matrix(1,0,0,1,0,0)"><text x="145" y="578" style="fill: rgb(0,0,0); fill-opacity: 1.0; font-family: Arial; font-size: 40px;" >AlN, 1 nm</text></g><line x1="137" y1="602" x2="330" y2="602" style="stroke-width: 1.0;stroke: rgb(0,0,0);stroke-opacity: 1.0;stroke-linecap: square;" transform="matrix(1,0,0,1,0,0)" /><line x1="330" y1="602" x2="400" y2="401" style="stroke-width: 1.0;stroke: rgb(0,0,0);stroke-opacity: 1.0;stroke-linecap: square;" transform="matrix(1,0,0,1,0,0)" /><rect x="400" y="402" width="700" height="200" style="fill: url(#_1211865503872681lgp4); fill-opacity: 1.0" transform="matrix(1,0,0,1,0,0)" /><rect x="400" y="402" width="700" height="200" style="stroke-width: 1.0;stroke: rgb(0,0,0);stroke-opacity: 1.0;stroke-linecap: square;; fill: none" transform="matrix(1,0,0,1,0,0)" /><g transform="matrix(1,0,0,1,0,0)"><text x="698" y="472" style="fill: rgb(0,0,0); fill-opacity: 1.0; font-family: Arial; font-size: 50px;" >GaN</text></g><g transform="matrix(1,0,0,1,0,0)"><text x="666" y="548" style="fill: rgb(0,0,0); fill-opacity: 1.0; font-family: Arial; font-size: 50px;" >200 nm</text></g><rect x="400" y="602" width="700" height="420" style="fill: url(#_1211865503872681lgp5); fill-opacity: 1.0" transform="matrix(1,0,0,1,0,0)" /><rect x="400" y="602" width="700" height="420" style="stroke-width: 1.0;stroke: rgb(0,0,0);stroke-opacity: 1.0;stroke-linecap: square;; fill: none" transform="matrix(1,0,0,1,0,0)" /><g transform="matrix(1,0,0,1,0,0)"><text x="607" y="782" style="fill: rgb(0,0,0); fill-opacity: 1.0; font-family: Arial; font-size: 50px;" >Al<tspan baseline-shift ="sub">0.1</tspan>Ga<tspan baseline-shift ="sub">0.9</tspan>N</text></g><g transform="matrix(1,0,0,1,0,0)"><text x="666" y="858" style="fill: rgb(0,0,0); fill-opacity: 1.0; font-family: Arial; font-size: 50px;" >420 nm</text></g><rect x="400" y="1022" width="700" height="70" style="fill: url(#_1211865503872681lgp6); fill-opacity: 1.0" transform="matrix(1,0,0,1,0,0)" /><rect x="400" y="1022" width="700" height="70" style="stroke-width: 1.0;stroke: rgb(0,0,0);stroke-opacity: 1.0;stroke-linecap: square;; fill: none" transform="matrix(1,0,0,1,0,0)" /><g transform="matrix(1,0,0,1,0,0)"><text x="453" y="1065" style="fill: rgb(0,0,0); fill-opacity: 1.0; font-family: Arial; font-size: 46px;" >Al<tspan baseline-shift ="sub">x</tspan>Ga<tspan baseline-shift ="sub">1</tspan><tspan baseline-shift ="sub">-x</tspan>N, x=0.3-0.1, 70 nm</text></g><rect x="400" y="1092" width="700" height="280" style="fill: url(#_1211865503872681lgp7); fill-opacity: 1.0" transform="matrix(1,0,0,1,0,0)" /><rect x="400" y="1092" width="700" height="280" style="stroke-width: 1.0;stroke: rgb(0,0,0);stroke-opacity: 1.0;stroke-linecap: square;; fill: none" transform="matrix(1,0,0,1,0,0)" /><g transform="matrix(1,0,0,1,0,0)"><text x="607" y="1202" style="fill: rgb(0,0,0); fill-opacity: 1.0; font-family: Arial; font-size: 50px;" >Al<tspan baseline-shift ="sub">0.3</tspan>Ga<tspan baseline-shift ="sub">0.7</tspan>N</text></g><g transform="matrix(1,0,0,1,0,0)"><text x="666" y="1278" style="fill: rgb(0,0,0); fill-opacity: 1.0; font-family: Arial; font-size: 50px;" >280 nm</text></g><rect x="400" y="1372" width="700" height="140" style="fill: url(#_1211865503872681lgp8); fill-opacity: 1.0" transform="matrix(1,0,0,1,0,0)" /><rect x="400" y="1372" width="700" height="140" style="stroke-width: 1.0;stroke: rgb(0,0,0);stroke-opacity: 1.0;stroke-linecap: square;; fill: none" transform="matrix(1,0,0,1,0,0)" /><g transform="matrix(1,0,0,1,0,0)"><text x="434" y="1451" style="fill: rgb(0,0,0); fill-opacity: 1.0; font-family: Arial; font-size: 50px;" >Al<tspan baseline-shift ="sub">x</tspan>Ga<tspan baseline-shift ="sub">1</tspan><tspan baseline-shift ="sub">-x</tspan>N, x=1-0.3, 140 nm</text></g><rect x="1100" y="399" width="600" height="1113" style="stroke-width: 1.0;stroke: rgb(0,0,0);stroke-opacity: 1.0;stroke-linecap: square;; fill: none" transform="matrix(1,0,0,1,0,0)" /><g transform="matrix(1,0,0,1,0,0)"><text x="1282" y="887" style="fill: rgb(0,0,0); fill-opacity: 1.0; font-family: Arial; font-size: 50px;" >T = 945<tspan baseline-shift ="super">o</tspan>C</text></g><g transform="matrix(1,0,0,1,0,0)"><text x="1350" y="963" style="fill: rgb(0,0,0); fill-opacity: 1.0; font-family: Arial; font-size: 50px;" >35%</text></g><g transform="matrix(1,0,0,1,0,0)"><text x="1228" y="1039" style="fill: rgb(0,0,0); fill-opacity: 1.0; font-family: Arial; font-size: 50px;" >NH3=100 sccm</text></g><rect x="400" y="1512" width="700" height="560" style="fill: url(#_1211865503872681lgp9); fill-opacity: 1.0" transform="matrix(1,0,0,1,0,0)" /><line x1="400" y1="1512" x2="1100" y2="1512" style="stroke-width: 1.0;stroke: rgb(0,0,0);stroke-opacity: 1.0;stroke-linecap: square;" transform="matrix(1,0,0,1,0,0)" /><line x1="400" y1="2072" x2="1100" y2="2072" style="stroke-width: 1.0;stroke: rgb(0,0,0);stroke-opacity: 1.0;stroke-linecap: square;" transform="matrix(1,0,0,1,0,0)" /><line x1="400" y1="1512" x2="400" y2="1780" style="stroke-width: 1.0;stroke: rgb(0,0,0);stroke-opacity: 1.0;stroke-linecap: square;" transform="matrix(1,0,0,1,0,0)" /><line x1="400" y1="1804" x2="400" y2="2072" style="stroke-width: 1.0;stroke: rgb(0,0,0);stroke-opacity: 1.0;stroke-linecap: square;" transform="matrix(1,0,0,1,0,0)" /><line x1="375" y1="1804" x2="425" y2="1767" style="stroke-width: 1.0;stroke: rgb(0,0,0);stroke-opacity: 1.0;stroke-linecap: square;" transform="matrix(1,0,0,1,0,0)" /><line x1="375" y1="1817" x2="425" y2="1780" style="stroke-width: 1.0;stroke: rgb(0,0,0);stroke-opacity: 1.0;stroke-linecap: square;" transform="matrix(1,0,0,1,0,0)" /><line x1="1100" y1="1512" x2="1100" y2="1780" style="stroke-width: 1.0;stroke: rgb(0,0,0);stroke-opacity: 1.0;stroke-linecap: square;" transform="matrix(1,0,0,1,0,0)" /><line x1="1100" y1="1804" x2="1100" y2="2072" style="stroke-width: 1.0;stroke: rgb(0,0,0);stroke-opacity: 1.0;stroke-linecap: square;" transform="matrix(1,0,0,1,0,0)" /><line x1="1075" y1="1804" x2="1125" y2="1767" style="stroke-width: 1.0;stroke: rgb(0,0,0);stroke-opacity: 1.0;stroke-linecap: square;" transform="matrix(1,0,0,1,0,0)" /><line x1="1075" y1="1817" x2="1125" y2="1780" style="stroke-width: 1.0;stroke: rgb(0,0,0);stroke-opacity: 1.0;stroke-linecap: square;" transform="matrix(1,0,0,1,0,0)" /><g transform="matrix(1,0,0,1,0,0)"><text x="709" y="1762" style="fill: rgb(0,0,0); fill-opacity: 1.0; font-family: Arial; font-size: 50px;" >AlN</text></g><g transform="matrix(1,0,0,1,0,0)"><text x="632" y="1838" style="fill: rgb(0,0,0); fill-opacity: 1.0; font-family: Arial; font-size: 50px;" >800.05 nm</text></g><rect x="1100" y="1512" width="600" height="560" style="stroke-width: 1.0;stroke: rgb(0,0,0);stroke-opacity: 1.0;stroke-linecap: square;; fill: none" transform="matrix(1,0,0,1,0,0)" /><g transform="matrix(1,0,0,1,0,0)"><text x="1268" y="1724" style="fill: rgb(0,0,0); fill-opacity: 1.0; font-family: Arial; font-size: 50px;" >T = 1080<tspan baseline-shift ="super">o</tspan>C</text></g><g transform="matrix(1,0,0,1,0,0)"><text x="1329" y="1800" style="fill: rgb(0,0,0); fill-opacity: 1.0; font-family: Arial; font-size: 50px;" >42.7%</text></g><g transform="matrix(1,0,0,1,0,0)"><text x="1228" y="1876" style="fill: rgb(0,0,0); fill-opacity: 1.0; font-family: Arial; font-size: 50px;" >NH3=100 sccm</text></g><rect x="400" y="2072" width="700" height="80" style="fill: url(#_1211865503872681lgp10); fill-opacity: 1.0" transform="matrix(1,0,0,1,0,0)" /><rect x="400" y="2072" width="700" height="80" style="stroke-width: 1.0;stroke: rgb(0,0,0);stroke-opacity: 1.0;stroke-linecap: square;; fill: none" transform="matrix(1,0,0,1,0,0)" /><g transform="matrix(1,0,0,1,0,0)"><text x="498" y="2121" style="fill: rgb(0,0,0); fill-opacity: 1.0; font-family: Arial; font-size: 50px;" >MEE nucl., AlN, 80 nm</text></g><rect x="1100" y="2072" width="600" height="80" style="stroke-width: 1.0;stroke: rgb(0,0,0);stroke-opacity: 1.0;stroke-linecap: square;; fill: none" transform="matrix(1,0,0,1,0,0)" /><g transform="matrix(1,0,0,1,0,0)"><text x="1127" y="2119" style="fill: rgb(0,0,0); fill-opacity: 1.0; font-family: Arial; font-size: 43px;" >T = 750<tspan baseline-shift ="super">o</tspan>C, 25%, N*=3 sccm</text></g><rect x="400" y="2152" width="700" height="200" style="fill: rgb(128,128,128); fill-opacity: 1.0" transform="matrix(1,0,0,1,0,0)" /><rect x="400" y="2152" width="700" height="200" style="stroke-width: 1.0;stroke: rgb(0,0,0);stroke-opacity: 1.0;stroke-linecap: square;; fill: none" transform="matrix(1,0,0,1,0,0)" /><g transform="matrix(1,0,0,1,0,0)"><text x="659" y="2261" style="fill: rgb(0,0,0); fill-opacity: 1.0; font-family: Arial; font-size: 50px;" >c-Al2O3</text></g><rect x="-119" y="0" width="2534" height="2970" style="stroke-width: 1.0;stroke: rgb(128,128,128);stroke-opacity: 1.0;stroke-linecap: square;; fill: none" transform="matrix(1,0,0,1,0,0)" /></svg>